<mxfile host="app.diagrams.net" modified="2022-04-04T13:44:41.305Z" agent="5.0 (Windows)" etag="P3qGo_uRN8itgFqYXyF9" version="17.4.0" type="github">
  <diagram id="Vuyk-2e29oqBd6F1tE3K" name="Page-1">
    <mxGraphModel dx="1422" dy="724" grid="1" gridSize="10" guides="1" tooltips="1" connect="1" arrows="1" fold="1" page="1" pageScale="1" pageWidth="827" pageHeight="1169" math="0" shadow="0">
      <root>
        <mxCell id="0" />
        <mxCell id="1" parent="0" />
        <mxCell id="1Sg80rZOHdZ85smLCKLu-2" value="API passerelle" style="rounded=1;whiteSpace=wrap;html=1;" parent="1" vertex="1">
          <mxGeometry x="330" y="525" width="120" height="60" as="geometry" />
        </mxCell>
        <mxCell id="1Sg80rZOHdZ85smLCKLu-3" value="Registre de service" style="rounded=1;whiteSpace=wrap;html=1;" parent="1" vertex="1">
          <mxGeometry x="510" y="524.5" width="120" height="60" as="geometry" />
        </mxCell>
        <mxCell id="1Sg80rZOHdZ85smLCKLu-6" value="Micro service 4" style="rounded=1;whiteSpace=wrap;html=1;" parent="1" vertex="1">
          <mxGeometry x="510" y="620" width="120" height="60" as="geometry" />
        </mxCell>
        <mxCell id="1Sg80rZOHdZ85smLCKLu-7" value="" style="endArrow=classic;html=1;rounded=0;entryX=0.25;entryY=0;entryDx=0;entryDy=0;exitX=0.5;exitY=1;exitDx=0;exitDy=0;" parent="1" source="1Sg80rZOHdZ85smLCKLu-2" target="1Sg80rZOHdZ85smLCKLu-6" edge="1">
          <mxGeometry width="50" height="50" relative="1" as="geometry">
            <mxPoint x="360" y="820" as="sourcePoint" />
            <mxPoint x="410" y="770" as="targetPoint" />
          </mxGeometry>
        </mxCell>
        <mxCell id="1Sg80rZOHdZ85smLCKLu-8" value="&lt;div&gt;Micro service 1 &lt;br&gt;&lt;/div&gt;&lt;div&gt;(MS 1)&lt;/div&gt;" style="rounded=1;whiteSpace=wrap;html=1;" parent="1" vertex="1">
          <mxGeometry x="200" y="720" width="120" height="60" as="geometry" />
        </mxCell>
        <mxCell id="1Sg80rZOHdZ85smLCKLu-9" value="&lt;div&gt;Micro service 2&lt;/div&gt;&lt;div&gt;(MS 2)&lt;/div&gt;" style="rounded=1;whiteSpace=wrap;html=1;" parent="1" vertex="1">
          <mxGeometry x="330" y="720" width="120" height="60" as="geometry" />
        </mxCell>
        <mxCell id="1Sg80rZOHdZ85smLCKLu-10" value="&lt;div&gt;Micro service 3&lt;/div&gt;&lt;div&gt;(MS 3)&lt;/div&gt;" style="rounded=1;whiteSpace=wrap;html=1;" parent="1" vertex="1">
          <mxGeometry x="460" y="720" width="120" height="60" as="geometry" />
        </mxCell>
        <mxCell id="1Sg80rZOHdZ85smLCKLu-11" value="" style="endArrow=classic;html=1;rounded=0;exitX=0.5;exitY=1;exitDx=0;exitDy=0;entryX=0.5;entryY=0;entryDx=0;entryDy=0;" parent="1" source="1Sg80rZOHdZ85smLCKLu-6" target="1Sg80rZOHdZ85smLCKLu-10" edge="1">
          <mxGeometry width="50" height="50" relative="1" as="geometry">
            <mxPoint x="360" y="820" as="sourcePoint" />
            <mxPoint x="410" y="770" as="targetPoint" />
          </mxGeometry>
        </mxCell>
        <mxCell id="1Sg80rZOHdZ85smLCKLu-13" value="" style="endArrow=classic;html=1;rounded=0;entryX=0.5;entryY=0;entryDx=0;entryDy=0;" parent="1" target="1Sg80rZOHdZ85smLCKLu-9" edge="1">
          <mxGeometry width="50" height="50" relative="1" as="geometry">
            <mxPoint x="570" y="680" as="sourcePoint" />
            <mxPoint x="580" y="730" as="targetPoint" />
          </mxGeometry>
        </mxCell>
        <mxCell id="1Sg80rZOHdZ85smLCKLu-16" value="" style="endArrow=classic;html=1;rounded=0;entryX=0.5;entryY=0;entryDx=0;entryDy=0;exitX=0.5;exitY=1;exitDx=0;exitDy=0;" parent="1" source="1Sg80rZOHdZ85smLCKLu-2" target="1Sg80rZOHdZ85smLCKLu-9" edge="1">
          <mxGeometry width="50" height="50" relative="1" as="geometry">
            <mxPoint x="360" y="820" as="sourcePoint" />
            <mxPoint x="410" y="770" as="targetPoint" />
          </mxGeometry>
        </mxCell>
        <mxCell id="1Sg80rZOHdZ85smLCKLu-18" value="" style="endArrow=classic;html=1;rounded=0;entryX=0.5;entryY=0;entryDx=0;entryDy=0;exitX=0.5;exitY=1;exitDx=0;exitDy=0;" parent="1" source="1Sg80rZOHdZ85smLCKLu-2" target="1Sg80rZOHdZ85smLCKLu-8" edge="1">
          <mxGeometry width="50" height="50" relative="1" as="geometry">
            <mxPoint x="360" y="820" as="sourcePoint" />
            <mxPoint x="410" y="770" as="targetPoint" />
          </mxGeometry>
        </mxCell>
        <mxCell id="1Sg80rZOHdZ85smLCKLu-19" value="Serveur de base de données MS1" style="shape=datastore;whiteSpace=wrap;html=1;" parent="1" vertex="1">
          <mxGeometry x="210" y="820" width="100" height="80" as="geometry" />
        </mxCell>
        <mxCell id="1Sg80rZOHdZ85smLCKLu-20" value="Serveur de base de données MS2" style="shape=datastore;whiteSpace=wrap;html=1;" parent="1" vertex="1">
          <mxGeometry x="340" y="820" width="100" height="80" as="geometry" />
        </mxCell>
        <mxCell id="1Sg80rZOHdZ85smLCKLu-21" value="Serveur de base de données MS3" style="shape=datastore;whiteSpace=wrap;html=1;" parent="1" vertex="1">
          <mxGeometry x="480" y="820" width="100" height="80" as="geometry" />
        </mxCell>
        <mxCell id="1Sg80rZOHdZ85smLCKLu-22" value="Front - end" style="rounded=1;whiteSpace=wrap;html=1;" parent="1" vertex="1">
          <mxGeometry x="330" y="420" width="120" height="60" as="geometry" />
        </mxCell>
        <mxCell id="1Sg80rZOHdZ85smLCKLu-23" value="" style="endArrow=classic;html=1;rounded=0;entryX=0.5;entryY=0;entryDx=0;entryDy=0;exitX=0.5;exitY=1;exitDx=0;exitDy=0;" parent="1" source="1Sg80rZOHdZ85smLCKLu-22" target="1Sg80rZOHdZ85smLCKLu-2" edge="1">
          <mxGeometry width="50" height="50" relative="1" as="geometry">
            <mxPoint x="360" y="670" as="sourcePoint" />
            <mxPoint x="410" y="620" as="targetPoint" />
          </mxGeometry>
        </mxCell>
        <mxCell id="1Sg80rZOHdZ85smLCKLu-24" value="" style="endArrow=classic;html=1;rounded=0;entryX=0;entryY=0.5;entryDx=0;entryDy=0;exitX=1;exitY=0.5;exitDx=0;exitDy=0;" parent="1" target="1Sg80rZOHdZ85smLCKLu-3" edge="1">
          <mxGeometry width="50" height="50" relative="1" as="geometry">
            <mxPoint x="450" y="554.5" as="sourcePoint" />
            <mxPoint x="410" y="724.5" as="targetPoint" />
          </mxGeometry>
        </mxCell>
        <mxCell id="1Sg80rZOHdZ85smLCKLu-25" value="" style="endArrow=classic;html=1;rounded=0;entryX=0.5;entryY=0;entryDx=0;entryDy=0;exitX=0.5;exitY=1;exitDx=0;exitDy=0;" parent="1" source="1Sg80rZOHdZ85smLCKLu-8" target="1Sg80rZOHdZ85smLCKLu-19" edge="1">
          <mxGeometry width="50" height="50" relative="1" as="geometry">
            <mxPoint x="360" y="760" as="sourcePoint" />
            <mxPoint x="410" y="710" as="targetPoint" />
          </mxGeometry>
        </mxCell>
        <mxCell id="1Sg80rZOHdZ85smLCKLu-26" value="" style="endArrow=classic;html=1;rounded=0;entryX=0.5;entryY=0;entryDx=0;entryDy=0;exitX=0.5;exitY=1;exitDx=0;exitDy=0;" parent="1" edge="1">
          <mxGeometry width="50" height="50" relative="1" as="geometry">
            <mxPoint x="389.5" y="780" as="sourcePoint" />
            <mxPoint x="389.5" y="820" as="targetPoint" />
          </mxGeometry>
        </mxCell>
        <mxCell id="1Sg80rZOHdZ85smLCKLu-27" value="" style="endArrow=classic;html=1;rounded=0;entryX=0.5;entryY=0;entryDx=0;entryDy=0;exitX=0.5;exitY=1;exitDx=0;exitDy=0;" parent="1" edge="1">
          <mxGeometry width="50" height="50" relative="1" as="geometry">
            <mxPoint x="529.5" y="780" as="sourcePoint" />
            <mxPoint x="529.5" y="820" as="targetPoint" />
          </mxGeometry>
        </mxCell>
      </root>
    </mxGraphModel>
  </diagram>
</mxfile>
